<svg version="1.0" xmlns="http://www.w3.org/2000/svg" width="266.667" height="266.667" viewBox="0 0 200 200"><path d="M98.1 33.4C81.3 39 67.5 44.1 67.3 44.6c-.2.5 6 4.2 13.6 8.2l14 7.3 7.3 13.9c4 7.7 7.8 14 8.3 14 .6 0 5.7-14.1 11.4-31.3 5.7-17.1 10.6-31.8 10.9-32.5.9-2.4-4.5-1-34.7 9.2zm12.8 9.2L96.3 57.2l-11.9-6C76.9 47.4 73.1 45 74 44.6c5.3-2.1 48.8-16.5 50-16.5.8-.1-5.1 6.5-13.1 14.5zm8 14.3C114.3 70.7 110.3 82 110 82c-.3 0-3.1-5.1-6.2-11.3l-5.7-11.2 14.1-14.2c7.8-7.8 14.4-14.1 14.6-13.8.2.2-3.4 11.6-7.9 25.4zM132 119v14h2.5c2.3 0 2.5-.3 2.5-5.1 0-5.6 1.1-8.3 4-9.9 3.3-1.7 5 1.2 5 8.6 0 6.2.1 6.4 2.5 6.4 2.5 0 2.5-.1 2.5-7.8 0-9-1.5-12.2-5.9-12.2-1.5 0-3.6.7-4.7 1.5-3 2.3-3.4 1.9-3.4-4 0-5.2-.1-5.5-2.5-5.5H132v14zM156 107.5c0 2 .5 2.5 2.5 2.5s2.5-.5 2.5-2.5-.5-2.5-2.5-2.5-2.5.5-2.5 2.5zM43.6 108.1c-2 1.6-2.6 2.9-2.6 5.9 0 4.5 1.7 6.1 9.2 8.6 3.5 1.1 4.8 2.1 4.8 3.5 0 2.7-4.3 3.5-9.3 1.5-4.1-1.6-5.6-1.1-5.7 2 0 1.8 5.9 3.8 11.3 3.8 4.2 0 5.3-.5 7.3-2.8 4.7-5.4 2.8-9.5-6.1-12.9-4.3-1.7-6-2.8-6-4.1 0-2.6 3.5-3.6 7.7-2.2 3.1 1.1 3.7 1.1 4.7-.5.9-1.6.6-2.1-1.9-3.4-4.2-2.2-10.2-1.9-13.4.6zM119 110c0 2-.5 3-1.5 3-.8 0-1.5.9-1.5 2s.7 2 1.5 2c1.2 0 1.5 1.5 1.5 7.5 0 6.5.3 7.6 2.1 8.5 2.9 1.6 7.9.3 7.9-2.1 0-1.4-.7-1.9-2.5-1.9-2.4 0-2.5-.3-2.5-6 0-5.3.2-6 2-6 1.3 0 2-.7 2-2s-.7-2-2-2c-1.6 0-2-.7-2-3 0-2.5-.4-3-2.5-3s-2.5.5-2.5 3zM62 113.7c0 .5 1.7 4.9 3.8 9.9 3 7 4.3 9 6.1 9.2 1.8.3 2.5-.4 3.9-3.9l1.6-4.2 1.8 4.2c1.3 3.1 2.3 4.1 4 4.1 2 0 2.9-1.4 6.1-9.3 2-5 3.7-9.6 3.7-10 0-.5-1-.7-2.1-.5-1.6.2-2.8 2-4.8 7-1.4 3.6-2.9 7-3.3 7.3-1.3 1.3-2.1-6.6-.9-9.1 1.5-3.4 1.4-5.4-.5-5.4-.8 0-2 1.4-2.6 3.1l-1.1 3.1-1.3-3.1c-.7-1.7-2-3.1-2.9-3.1-1.9 0-1.9 1.1 0 5.5 1.2 2.9 1.2 4 .1 6.6l-1.3 3.1-3-7.4c-2.2-5.6-3.4-7.4-5.1-7.6-1.2-.2-2.2.1-2.2.5zM98.3 114c-1.3.5-2.3 1.6-2.3 2.5 0 1.8.9 1.9 4.6.5 2-.8 3.2-.7 5 .5 3.9 2.5 3 4.1-2 3.7-3.8-.3-4.9 0-7 2.2-3.2 3.1-3.3 5-.1 8.1 2.8 2.9 4.8 3.1 8.8 1 2.6-1.3 3-1.3 4.4.1 2.6 2.5 3.8 1.1 3.5-4.2-.4-8.2-1.2-11.3-3.4-13.4-2.3-2.1-7.6-2.6-11.5-1zm9.1 10.9c2 3.2-4.3 6.6-7.1 3.8-1.4-1.3-1.4-1.9-.3-3.1 1.4-1.7 6.5-2.2 7.4-.7zM156 123v10h5v-20h-5v10zM.4 140.5c-.8 1.9.3 3.5 2.6 3.5 1.9 0 3-1.7 2.3-3.8-.6-1.7-4.2-1.5-4.9.3zM16.4 140.5c-.4.9-.2 2.1.4 2.7 1.5 1.5 4.4.1 4-1.9-.4-2.3-3.6-2.9-4.4-.8zM30.8 140.2c-.8 2.1.2 3.8 2.2 3.8 1.9 0 3-1.7 2.3-3.8-.3-.6-1.3-1.2-2.3-1.2-1 0-2 .6-2.2 1.2zM45.4 140.5c-.4.9-.2 2.1.4 2.7 1.5 1.5 4.4.1 4-1.9-.4-2.3-3.6-2.9-4.4-.8zM60.8 140.2c-.8 2.1.2 3.8 2.2 3.8 1.9 0 3-1.7 2.3-3.8-.3-.6-1.3-1.2-2.3-1.2-1 0-2 .6-2.2 1.2zM75.4 140.5c-.4.9-.2 2.1.4 2.7 1.5 1.5 4.4.1 4-1.9-.4-2.3-3.6-2.9-4.4-.8zM91 141.5c0 2.9 3.4 3.6 4.4.9.8-2.1-.1-3.4-2.5-3.4-1.4 0-1.9.7-1.9 2.5zM105.4 140.5c-.4.9-.2 2.1.4 2.7 1.5 1.5 4.4.1 4-1.9-.4-2.3-3.6-2.9-4.4-.8zM120.4 140.5c-.4.9-.2 2.1.4 2.7 1.5 1.5 4.4.1 4-1.9-.4-2.3-3.6-2.9-4.4-.8zM135.3 140.6c-.3.8-.1 2 .5 2.6 1.6 1.6 4.2.2 4.2-2.2 0-2.4-3.8-2.8-4.7-.4zM150.4 140.5c-.4.9-.2 2.1.4 2.7 1.5 1.5 4.4.1 4-1.9-.4-2.3-3.6-2.9-4.4-.8zM164.8 140.2c-.8 2.1.2 3.8 2.2 3.8 1.9 0 3-1.7 2.3-3.8-.3-.6-1.3-1.2-2.3-1.2-1 0-2 .6-2.2 1.2zM180.4 140.5c-.4.9-.2 2.1.4 2.7 1.5 1.5 4.4.1 4-1.9-.4-2.3-3.6-2.9-4.4-.8zM194.8 140.2c-.8 2.1.2 3.8 2.2 3.8 1.9 0 3-1.7 2.3-3.8-.3-.6-1.3-1.2-2.3-1.2-1 0-2 .6-2.2 1.2zM7 151c-2.6 2.6-2.6 6.4 0 9 2.3 2.3 7.2 2.6 8.9.7 1.5-1.9.3-2.8-2-1.4-4 2.5-8.1-4.3-4.4-7.3 1.3-1.1 2.1-1.1 3.6-.2 2.7 1.7 4.8.3 2.4-1.5-2.7-1.9-6.2-1.6-8.5.7zM19 155.5c0 3.7.4 6.5 1 6.5s1-1.3 1-2.9c0-2.9 2.1-5.7 3.3-4.4.4.3.7 2.1.7 4 0 2.3.5 3.3 1.5 3.3 2 0 2-5.9.1-8.6-1.3-1.6-1.8-1.7-3.5-.6-1.9 1.1-2.1 1-2.1-1.3 0-1.4-.4-2.5-1-2.5s-1 2.8-1 6.5zM30 150c0 .5.5 1 1 1 .6 0 1-.5 1-1 0-.6-.4-1-1-1-.5 0-1 .4-1 1zM35 155.5c0 6.4 1.2 8.6 2.4 4.2l.6-2.2 1.9 2.5c2.4 3 3.9 2 1.7-1.1-1.4-2.1-1.4-2.4.1-4.1 2.1-2.4-.3-2.5-2.9-.1-1.7 1.5-1.8 1.4-1.8-2 0-2.1-.4-3.7-1-3.7s-1 2.8-1 6.5zM45 155.5c0 6.5 1.2 8.5 2.6 4.3l.7-2.2 1.7 2.2c2.7 3.3 4.4 2.8 2.4-.7-1.5-2.5-1.5-3.2-.5-4.5.8-.9.9-1.6.3-1.6-.5 0-1.5.7-2.2 1.5-2 2.4-3 1.7-3-2 0-1.9-.4-3.5-1-3.5s-1 2.8-1 6.5zM88 155.5c0 5.1.3 6.5 1.5 6.5 1 0 1.5-1 1.5-3.4 0-2 .6-3.6 1.4-3.9 2-.8 2.6.2 2.6 4 0 1.8.5 3.3 1.1 3.3.6 0 .9-1.9.7-4.8-.3-4.4-.4-4.7-3-4.5-2.2.1-2.8-.3-2.8-1.8 0-1-.7-1.9-1.5-1.9-1.2 0-1.5 1.4-1.5 6.5zM110 153.9c0 2.7.3 5.6.6 6.5.7 1.7 4.4 2.2 4.4.6 0-.6-.4-1-1-1-.5 0-1-2.5-1-5.5 0-4.2-.3-5.5-1.5-5.5-1.1 0-1.5 1.2-1.5 4.9zM116.2 155.2c.3 5.7.5 6.3 2.6 6.6 1.2.2 2.2-.1 2.2-.7s-.4-1.1-1-1.1c-.5 0-1-2.5-1-5.5 0-4.3-.3-5.5-1.5-5.5-1.3 0-1.5 1.1-1.3 6.2zM122 150c0 .5.7 1 1.5 1s1.5-.5 1.5-1c0-.6-.7-1-1.5-1s-1.5.4-1.5 1zM132 155.5c0 3.7.4 6.5 1 6.5s1-1.6 1-3.5.3-3.5.8-3.5c.4 0 2 1.6 3.5 3.5s3.2 3.5 3.7 3.5c.6 0 1-2.9 1-6.5 0-3.7-.4-6.5-1-6.5-.5 0-1 1.9-1 4.2l-.1 4.3-3.7-4.3c-2-2.3-4-4.2-4.4-4.2-.5 0-.8 2.9-.8 6.5zM156.9 151.2c-.3 1.3-.2 4.1.1 6.3.4 3.2 1 4.1 2.8 4.3 2.5.4 3-1.3.7-2.2-1.6-.6-2.1-4.1-.6-5 .9-.6-.9-5.6-2-5.6-.4 0-.8 1-1 2.2zM193 150c0 .5.5 1 1 1 .6 0 1-.5 1-1 0-.6-.4-1-1-1-.5 0-1 .4-1 1zM57.3 152.7c-2.3.9-1.4 2 1.2 1.5 1.4-.2 2.5 0 2.5.6 0 .5-1.4 1.2-3.1 1.6-2.5.5-3 1-2.7 2.8.3 2 1 2.3 4.6 2.4 4.1.2 4.2.1 4.2-3.1 0-4.9-2.9-7.4-6.7-5.8zm2.9 7.5c-.9.9-1.5.9-2.4 0-1-1-1-1.5.2-2.2 2-1.2 3.8.6 2.2 2.2zM68.8 152.7c-2.6.4-2.8.8-2.8 4.9 0 3.2.4 4.4 1.5 4.4 1 0 1.5-1 1.5-3.4 0-2 .6-3.6 1.4-3.9 2-.8 2.6.2 2.6 4 0 1.8.5 3.3 1.1 3.3.6 0 .9-1.9.7-4.7-.3-5.1-.8-5.4-6-4.6zM79.3 152.7c-2.3.9-1.4 2 1.2 1.5 1.5-.2 2.5 0 2.5.7 0 .6-.8 1.1-1.9 1.1-2.4 0-4.5 2.5-3.7 4.5.4 1 1.8 1.4 4.6 1.3 3.9-.1 4-.2 4-3.9 0-4.7-2.8-6.8-6.7-5.2zm3.3 7.1c-1.3 1.3-1.8 1.4-2.8.4-1-1-1-1.5.1-2.1.8-.5 2.1-.7 2.8-.4 1.2.5 1.2.8-.1 2.1zM101.3 152.7c-2.3.9-1.4 2 1.2 1.5 1.5-.2 2.5 0 2.5.7 0 .6-.8 1.1-1.9 1.1-2.4 0-4.5 2.5-3.8 4.5.4 1 2 1.4 5.1 1.3l4.4-.1-.5-3.6c-.7-4.9-3.4-6.9-7-5.4zm3.7 6.9c-1.2 1.3-4 .9-4-.6 0-1.1 2.2-1.8 3.8-1.2.9.3 1 .8.2 1.8zM147.3 152.7c-2.2.8-1.4 2 1.1 1.6 1.3-.3 2.7 0 3 .6.5.7-.2 1.1-1.7 1.1-2.9 0-5.2 2.3-4.4 4.5.4 1 2 1.4 5.1 1.3l4.4-.1-.5-3.6c-.7-4.9-3.4-6.9-7-5.4zm3.6 7c-.8.9-1.6 1-2.2.4-1.3-1.3 0-3.1 1.9-2.4 1.1.4 1.2.8.3 2zM165.3 152.7c-2.2.8-1.4 2 1.1 1.6 1.3-.3 2.7 0 3 .6.5.7-.2 1.1-1.7 1.1-2.9 0-5.2 2.3-4.4 4.5.4 1 2 1.4 5.1 1.3l4.4-.1-.5-3.6c-.7-4.9-3.4-6.9-7-5.4zm3.7 6.9c-.7.7-1.8 1-2.6.7-1.1-.4-1.2-.9-.4-1.9.7-.7 1.8-1 2.6-.7 1.1.4 1.2.9.4 1.9zM177.3 152.8c-2 .3-2.3.9-2.3 4.8 0 2.4.5 4.4 1 4.4.6 0 1-1.3 1-3 0-1.6.7-3.3 1.6-3.8 2.3-1.3 1.4-2.8-1.3-2.4zM183.3 152.7c-2.3.9-1.4 2 1.2 1.5 1.5-.2 2.5 0 2.5.7 0 .6-.8 1.1-1.9 1.1-2.4 0-4.5 2.5-3.7 4.5.4 1 1.8 1.4 4.6 1.3 3.9-.1 4-.2 4-3.9 0-4.7-2.8-6.8-6.7-5.2zm3.7 6.9c-1.2 1.3-4 .9-4-.6 0-1.1 2.2-1.8 3.8-1.2.9.3 1 .8.2 1.8zM30 157.5c0 2.5.5 4.5 1 4.5.6 0 1-2 1-4.5s-.4-4.5-1-4.5c-.5 0-1 2-1 4.5zM122 157.5c0 3.3.4 4.5 1.5 4.5s1.5-1.2 1.5-4.5-.4-4.5-1.5-4.5-1.5 1.2-1.5 4.5zM193 157.2c0 4.7-.7 6.2-3 7-1.3.5-1.2.7.3 1.3 3 1.3 4.7-1.3 4.7-7.1 0-3-.4-5.4-1-5.4-.5 0-1 1.9-1 4.2z"/></svg>